<svg width="16" height="16" viewBox="0 0 16 16" fill="none" xmlns="http://www.w3.org/2000/svg">
<path d="M8.2573 3.16725H7.27135V0H6.28539V3.16725H5.29943V0H4.31348V3.16725C4.31348 4.12647 5.13182 4.90471 6.16215 4.96353V9.04929H7.39459V4.96353C8.42492 4.90471 9.24326 4.12647 9.24326 3.16725V0H8.2573V3.16725ZM10.7222 1.80986V5.42957H11.9546V9.04929H13.1871V0C11.8265 0 10.7222 1.01352 10.7222 1.80986Z" fill="#F3B4B4"/>
<path d="M10.0844 7.49205C9.92516 7.75563 9.50968 8.15747 9.02185 8.4491C8.78365 8.5915 8.55665 8.6901 8.36504 8.73616C8.17273 8.78239 8.05916 8.76645 7.99507 8.73789C7.93098 8.70934 7.8504 8.63879 7.78366 8.47715C7.71716 8.3161 7.68029 8.09995 7.67867 7.85071C7.67535 7.34027 7.81861 6.81716 7.97783 6.55357C8.14232 6.28127 8.61334 5.79928 9.15956 5.42819C9.42752 5.24615 9.68263 5.11244 9.89533 5.04336C10.1152 4.97195 10.2147 4.99233 10.2485 5.00742C10.2824 5.02252 10.3591 5.08062 10.4178 5.2761C10.4745 5.46521 10.4941 5.72132 10.4751 6.01428C10.4365 6.61147 10.2489 7.21975 10.0844 7.49205Z" fill="#632525" stroke="#9D0202"/>
<path d="M10.9132 10.0665C10.553 10.1189 9.91543 10.073 9.34551 9.91285C9.06521 9.83407 8.83457 9.7366 8.67635 9.63299C8.51517 9.52745 8.47777 9.44918 8.47067 9.41316C8.46356 9.37715 8.46884 9.29266 8.58053 9.14741C8.69018 9.00483 8.87055 8.84754 9.10498 8.69386C9.58164 8.38139 10.166 8.15769 10.5262 8.10528C10.8958 8.0515 11.6403 8.0864 12.3189 8.2384C12.6539 8.31342 12.9356 8.40906 13.1298 8.51432C13.3363 8.6262 13.3566 8.69918 13.3572 8.70206C13.3578 8.70494 13.3666 8.7796 13.2145 8.94365C13.0715 9.098 12.8423 9.26799 12.5548 9.43358C11.9723 9.76912 11.2828 10.0127 10.9132 10.0665Z" fill="#632525" stroke="#9D0202"/>
<path d="M7.55438 11.5442C7.48133 11.2428 7.50987 10.6981 7.67444 10.2047C7.75517 9.96265 7.85947 9.76189 7.97406 9.62233C8.09002 9.48109 8.18353 9.44051 8.23667 9.43101C8.28981 9.42151 8.39441 9.42669 8.56636 9.51648C8.73626 9.6052 8.92516 9.75357 9.11163 9.94788C9.49174 10.344 9.7709 10.8336 9.84394 11.135C9.91904 11.445 9.90697 12.0813 9.75581 12.6678C9.68136 12.9567 9.58109 13.2008 9.46633 13.3707C9.34575 13.5493 9.25866 13.5764 9.2419 13.5794C9.22514 13.5824 9.13266 13.5873 8.93915 13.4649C8.75499 13.3484 8.54968 13.159 8.34721 12.9196C7.93613 12.4335 7.62948 11.8541 7.55438 11.5442Z" fill="#632525" stroke="#9D0202"/>
<path d="M5.46216 9.60785C5.77025 9.45593 6.37954 9.31014 6.9759 9.29113C7.26811 9.28182 7.52228 9.30446 7.71235 9.35461C7.90423 9.40524 7.98139 9.46959 8.01091 9.51373C8.04043 9.55788 8.06624 9.64755 8.02043 9.81538C7.97505 9.98163 7.8697 10.1816 7.71303 10.3936C7.39329 10.8263 6.93953 11.2047 6.63143 11.3566C6.31426 11.513 5.60841 11.7007 4.91305 11.7596C4.57092 11.7885 4.27034 11.7826 4.04697 11.7418C3.81339 11.6991 3.7525 11.6363 3.74106 11.6192C3.72962 11.6021 3.69716 11.5253 3.77202 11.3306C3.84361 11.1443 3.98912 10.9184 4.19072 10.6792C4.60045 10.1932 5.14498 9.76425 5.46216 9.60785Z" fill="#632525" stroke="#9D0202"/>
<path d="M6.9278 7.12225C7.19101 7.34864 7.51819 7.82615 7.69636 8.31994C7.78423 8.56346 7.82515 8.78253 7.81824 8.95357C7.81113 9.12939 7.75781 9.19315 7.73795 9.21018C7.7181 9.2272 7.64377 9.27289 7.43903 9.27872C7.23985 9.28439 6.98481 9.2489 6.70139 9.17306C6.12667 9.01928 5.57115 8.73756 5.30794 8.51117C5.03855 8.27945 4.63913 7.73389 4.39024 7.16885C4.26713 6.88938 4.19465 6.63526 4.1822 6.43723C4.17068 6.25378 4.21341 6.19254 4.2197 6.18405C4.2296 6.17866 4.30097 6.14206 4.51457 6.15225C4.74515 6.16324 5.04094 6.22589 5.36618 6.33205C6.02374 6.54667 6.6584 6.89053 6.9278 7.12225Z" fill="#632525" stroke="#9D0202"/>
<path d="M9.67745 7.64242C9.55191 7.85024 9.21314 8.18038 8.80984 8.42148C8.6139 8.53861 8.43111 8.61724 8.28128 8.65326C8.13073 8.68945 8.05648 8.6734 8.02486 8.65931C7.99323 8.64522 7.93519 8.60233 7.88294 8.4758C7.83094 8.34986 7.80052 8.17625 7.79919 7.97123C7.79644 7.54924 7.91562 7.12128 8.04116 6.91345C8.17197 6.69692 8.55921 6.29831 9.01384 5.98945C9.23601 5.83852 9.44337 5.73062 9.61165 5.67597C9.78711 5.61899 9.84548 5.64239 9.84691 5.64303C9.84833 5.64366 9.90423 5.67117 9.95103 5.82716C9.99592 5.97679 10.0126 6.18451 9.99689 6.4274C9.96469 6.92445 9.80825 7.42588 9.67745 7.64242Z" fill="#FFAFAA" stroke="#FB6363"/>
<path d="M10.435 9.77627C10.1469 9.81819 9.62216 9.78173 9.15012 9.64906C8.91876 9.58404 8.73332 9.50485 8.60959 9.42383C8.4829 9.34087 8.46928 9.28948 8.46829 9.28444C8.46729 9.27939 8.46044 9.22702 8.54822 9.11285C8.63397 9.00135 8.77867 8.87411 8.97218 8.74726C9.36697 8.48846 9.84842 8.30557 10.1365 8.26364C10.4339 8.22036 11.0504 8.24806 11.6161 8.37475C11.8946 8.43712 12.1235 8.51558 12.2776 8.59908C12.3787 8.65389 12.4157 8.69261 12.4279 8.70823C12.4223 8.72642 12.4023 8.77344 12.3278 8.85381C12.2144 8.97625 12.0283 9.11509 11.7894 9.25275C11.3038 9.53242 10.7324 9.73299 10.435 9.77627Z" fill="#FFAFAA" stroke="#FB6363"/>
<path d="M7.69329 11.081C7.63515 10.841 7.65695 10.3936 7.79316 9.98523C7.85972 9.78568 7.94443 9.62439 8.03402 9.51527C8.12499 9.40447 8.1881 9.3853 8.20543 9.3822C8.22277 9.3791 8.28954 9.37506 8.42443 9.4455C8.55728 9.51487 8.70988 9.63375 8.8636 9.79393C9.17821 10.1218 9.40604 10.5246 9.46418 10.7645C9.52438 11.013 9.51591 11.5392 9.38999 12.0278C9.32815 12.2677 9.24591 12.4659 9.15497 12.6005C9.08301 12.7071 9.03277 12.7358 9.01959 12.7421C9.00458 12.7408 8.94518 12.7317 8.82969 12.6586C8.68375 12.5663 8.5163 12.4128 8.34815 12.214C8.00569 11.809 7.75349 11.3294 7.69329 11.081Z" fill="#FFAFAA" stroke="#FB6363"/>
<path d="M5.8859 9.52174C6.13056 9.4011 6.63017 9.28003 7.12361 9.2643C7.36437 9.25663 7.56876 9.27555 7.71738 9.31476C7.86779 9.35445 7.9118 9.40064 7.92311 9.41755C7.93442 9.43446 7.95868 9.49039 7.92277 9.62196C7.88729 9.75194 7.80329 9.91308 7.67421 10.0878C7.40965 10.4458 7.03603 10.7553 6.79137 10.876C6.53763 11.0011 5.95476 11.1575 5.37562 11.2065C5.0916 11.2306 4.84743 11.225 4.67052 11.1927C4.51859 11.165 4.47391 11.1293 4.4661 11.1222C4.46296 11.1129 4.44956 11.0617 4.49825 10.9351C4.55495 10.7876 4.67247 10.6037 4.83982 10.4052C5.18107 10.0003 5.63216 9.64687 5.8859 9.52174Z" fill="#FFAFAA" stroke="#FB6363"/>
<path d="M7.02202 7.41455C7.23355 7.59649 7.50438 7.9895 7.65207 8.39881C7.7247 8.60008 7.75685 8.77692 7.75144 8.91074C7.74658 9.03084 7.71474 9.07055 7.71025 9.07565C7.70431 9.0795 7.65802 9.10678 7.51815 9.11076C7.36233 9.1152 7.15646 9.08731 6.9222 9.02463C6.44581 8.89715 5.9886 8.66395 5.77707 8.48202C5.55936 8.29476 5.22712 7.84301 5.01955 7.37178C4.91711 7.13921 4.85881 6.93199 4.84893 6.77468C4.84375 6.69232 4.85263 6.64616 4.85952 6.62368C4.88572 6.61779 4.93948 6.61024 5.03537 6.61482C5.21854 6.62355 5.45974 6.67394 5.73039 6.76228C6.27879 6.94127 6.80431 7.22729 7.02202 7.41455Z" fill="#FFAFAA" stroke="#FB6363"/>
</svg>
